<mxfile host="app.diagrams.net" agent="Mozilla/5.0 (Windows NT 10.0; Win64; x64) AppleWebKit/537.36 (KHTML, like Gecko) Chrome/130.0.0.0 Safari/537.36" version="24.8.3">
  <diagram name="第 1 页" id="iiLt0reOC6v12jr41lNj">
    <mxGraphModel dx="1376" dy="1897" grid="1" gridSize="10" guides="1" tooltips="1" connect="1" arrows="1" fold="1" page="1" pageScale="1" pageWidth="827" pageHeight="1169" math="0" shadow="0">
      <root>
        <mxCell id="0" />
        <mxCell id="1" parent="0" />
        <mxCell id="sNYSNCCPvWvVQqtZZR6n-1" value="" style="rounded=0;whiteSpace=wrap;html=1;strokeColor=none;" vertex="1" parent="1">
          <mxGeometry x="50" y="-30" width="420" height="660" as="geometry" />
        </mxCell>
        <mxCell id="sNYSNCCPvWvVQqtZZR6n-4" value="" style="edgeStyle=orthogonalEdgeStyle;rounded=0;orthogonalLoop=1;jettySize=auto;html=1;" edge="1" parent="1" source="sNYSNCCPvWvVQqtZZR6n-2" target="sNYSNCCPvWvVQqtZZR6n-3">
          <mxGeometry relative="1" as="geometry" />
        </mxCell>
        <mxCell id="sNYSNCCPvWvVQqtZZR6n-6" value="" style="edgeStyle=orthogonalEdgeStyle;rounded=0;orthogonalLoop=1;jettySize=auto;html=1;" edge="1" parent="1" source="sNYSNCCPvWvVQqtZZR6n-2" target="sNYSNCCPvWvVQqtZZR6n-5">
          <mxGeometry relative="1" as="geometry">
            <Array as="points">
              <mxPoint x="230" y="105" />
              <mxPoint x="230" y="35" />
            </Array>
          </mxGeometry>
        </mxCell>
        <mxCell id="sNYSNCCPvWvVQqtZZR6n-8" value="" style="edgeStyle=orthogonalEdgeStyle;rounded=0;orthogonalLoop=1;jettySize=auto;html=1;" edge="1" parent="1" source="sNYSNCCPvWvVQqtZZR6n-2" target="sNYSNCCPvWvVQqtZZR6n-7">
          <mxGeometry relative="1" as="geometry">
            <Array as="points">
              <mxPoint x="230" y="105" />
              <mxPoint x="230" y="180" />
            </Array>
          </mxGeometry>
        </mxCell>
        <mxCell id="sNYSNCCPvWvVQqtZZR6n-2" value="策略模式&lt;div&gt;调用AI大模型&lt;/div&gt;" style="rounded=0;whiteSpace=wrap;html=1;" vertex="1" parent="1">
          <mxGeometry x="100" y="80" width="90" height="50" as="geometry" />
        </mxCell>
        <mxCell id="sNYSNCCPvWvVQqtZZR6n-3" value="通义千问&lt;div&gt;大模型&lt;/div&gt;" style="rounded=0;whiteSpace=wrap;html=1;" vertex="1" parent="1">
          <mxGeometry x="316" y="80" width="90" height="50" as="geometry" />
        </mxCell>
        <mxCell id="sNYSNCCPvWvVQqtZZR6n-5" value="智谱AI&lt;div&gt;大模型&lt;/div&gt;" style="rounded=0;whiteSpace=wrap;html=1;" vertex="1" parent="1">
          <mxGeometry x="316" y="10" width="90" height="50" as="geometry" />
        </mxCell>
        <mxCell id="sNYSNCCPvWvVQqtZZR6n-7" value="讯飞星火&lt;div&gt;大模型&lt;/div&gt;" style="rounded=0;whiteSpace=wrap;html=1;" vertex="1" parent="1">
          <mxGeometry x="316" y="150" width="90" height="50" as="geometry" />
        </mxCell>
        <mxCell id="sNYSNCCPvWvVQqtZZR6n-12" value="" style="edgeStyle=orthogonalEdgeStyle;rounded=0;orthogonalLoop=1;jettySize=auto;html=1;" edge="1" parent="1" source="sNYSNCCPvWvVQqtZZR6n-9" target="sNYSNCCPvWvVQqtZZR6n-11">
          <mxGeometry relative="1" as="geometry">
            <Array as="points">
              <mxPoint x="230" y="315" />
              <mxPoint x="230" y="255" />
            </Array>
          </mxGeometry>
        </mxCell>
        <mxCell id="sNYSNCCPvWvVQqtZZR6n-14" value="" style="edgeStyle=orthogonalEdgeStyle;rounded=0;orthogonalLoop=1;jettySize=auto;html=1;" edge="1" parent="1" source="sNYSNCCPvWvVQqtZZR6n-9" target="sNYSNCCPvWvVQqtZZR6n-13">
          <mxGeometry relative="1" as="geometry" />
        </mxCell>
        <mxCell id="sNYSNCCPvWvVQqtZZR6n-16" value="" style="edgeStyle=orthogonalEdgeStyle;rounded=0;orthogonalLoop=1;jettySize=auto;html=1;" edge="1" parent="1" source="sNYSNCCPvWvVQqtZZR6n-9" target="sNYSNCCPvWvVQqtZZR6n-15">
          <mxGeometry relative="1" as="geometry">
            <Array as="points">
              <mxPoint x="230" y="315" />
              <mxPoint x="230" y="375" />
            </Array>
          </mxGeometry>
        </mxCell>
        <mxCell id="sNYSNCCPvWvVQqtZZR6n-9" value="ElasticSearch&lt;div&gt;数据检索&lt;/div&gt;" style="rounded=0;whiteSpace=wrap;html=1;" vertex="1" parent="1">
          <mxGeometry x="100" y="290" width="90" height="50" as="geometry" />
        </mxCell>
        <mxCell id="sNYSNCCPvWvVQqtZZR6n-11" value="建立文章索引" style="rounded=0;whiteSpace=wrap;html=1;" vertex="1" parent="1">
          <mxGeometry x="316" y="230" width="90" height="50" as="geometry" />
        </mxCell>
        <mxCell id="sNYSNCCPvWvVQqtZZR6n-13" value="文章数据&lt;div&gt;全量同步&lt;/div&gt;" style="rounded=0;whiteSpace=wrap;html=1;" vertex="1" parent="1">
          <mxGeometry x="316" y="290" width="90" height="50" as="geometry" />
        </mxCell>
        <mxCell id="sNYSNCCPvWvVQqtZZR6n-15" value="文章数据&lt;div&gt;增量同步&lt;/div&gt;" style="rounded=0;whiteSpace=wrap;html=1;" vertex="1" parent="1">
          <mxGeometry x="316" y="350" width="90" height="50" as="geometry" />
        </mxCell>
        <mxCell id="sNYSNCCPvWvVQqtZZR6n-17" value="" style="edgeStyle=orthogonalEdgeStyle;rounded=0;orthogonalLoop=1;jettySize=auto;html=1;" edge="1" parent="1" source="sNYSNCCPvWvVQqtZZR6n-20" target="sNYSNCCPvWvVQqtZZR6n-21">
          <mxGeometry relative="1" as="geometry">
            <Array as="points">
              <mxPoint x="227" y="504" />
              <mxPoint x="227" y="444" />
            </Array>
          </mxGeometry>
        </mxCell>
        <mxCell id="sNYSNCCPvWvVQqtZZR6n-18" value="" style="edgeStyle=orthogonalEdgeStyle;rounded=0;orthogonalLoop=1;jettySize=auto;html=1;" edge="1" parent="1" source="sNYSNCCPvWvVQqtZZR6n-20" target="sNYSNCCPvWvVQqtZZR6n-22">
          <mxGeometry relative="1" as="geometry" />
        </mxCell>
        <mxCell id="sNYSNCCPvWvVQqtZZR6n-19" value="" style="edgeStyle=orthogonalEdgeStyle;rounded=0;orthogonalLoop=1;jettySize=auto;html=1;" edge="1" parent="1" source="sNYSNCCPvWvVQqtZZR6n-20" target="sNYSNCCPvWvVQqtZZR6n-23">
          <mxGeometry relative="1" as="geometry">
            <Array as="points">
              <mxPoint x="227" y="504" />
              <mxPoint x="227" y="564" />
            </Array>
          </mxGeometry>
        </mxCell>
        <mxCell id="sNYSNCCPvWvVQqtZZR6n-20" value="Echarts&lt;div&gt;数据展示&lt;/div&gt;" style="rounded=0;whiteSpace=wrap;html=1;" vertex="1" parent="1">
          <mxGeometry x="97" y="479" width="90" height="50" as="geometry" />
        </mxCell>
        <mxCell id="sNYSNCCPvWvVQqtZZR6n-21" value="文章总数" style="rounded=0;whiteSpace=wrap;html=1;" vertex="1" parent="1">
          <mxGeometry x="313" y="419" width="90" height="50" as="geometry" />
        </mxCell>
        <mxCell id="sNYSNCCPvWvVQqtZZR6n-22" value="点赞/收藏/评论" style="rounded=0;whiteSpace=wrap;html=1;" vertex="1" parent="1">
          <mxGeometry x="313" y="479" width="90" height="50" as="geometry" />
        </mxCell>
        <mxCell id="sNYSNCCPvWvVQqtZZR6n-23" value="阅读量折现图" style="rounded=0;whiteSpace=wrap;html=1;" vertex="1" parent="1">
          <mxGeometry x="313" y="539" width="90" height="50" as="geometry" />
        </mxCell>
      </root>
    </mxGraphModel>
  </diagram>
</mxfile>
